HIERARCHY
ROOT Hips
{
    OFFSET 0.000000 0.000000 0.000000
    CHANNELS 6 Xposition Yposition Zposition Zrotation Xrotation Yrotation
    JOINT Spine
    {
        OFFSET -0.000000 7.236184 0.000000
        CHANNELS 3 Zrotation Xrotation Yrotation
        JOINT Spine1
        {
            OFFSET -0.000000 20.420147 0.000000
            CHANNELS 3 Zrotation Xrotation Yrotation
            JOINT Neck
            {
                OFFSET -0.000000 20.336288 1.848754
                CHANNELS 3 Zrotation Xrotation Yrotation
                JOINT Head
                {
                    OFFSET -0.000000 12.354461 -1.764923
                    CHANNELS 3 Zrotation Xrotation Yrotation
                    End Site
                    {
                        OFFSET -0.000000 22.061537 0.000000
                    }
                }
            }
            JOINT LeftShoulder
            {
                OFFSET 3.573296 18.396038 -0.314103
                CHANNELS 3 Zrotation Xrotation Yrotation
                JOINT LeftArm
                {
                    OFFSET 10.880760 0.000000 0.000000
                    CHANNELS 3 Zrotation Xrotation Yrotation
                    JOINT LeftForeArm
                    {
                        OFFSET 27.185530 0.000000 0.000000
                        CHANNELS 3 Zrotation Xrotation Yrotation
                        JOINT LeftHand
                        {
                            OFFSET 27.825975 0.000000 0.000000
                            CHANNELS 3 Zrotation Xrotation Yrotation
                            End Site
                            {
                                OFFSET 13.236923 0.000000 0.000000
                            }
                        }
                    }
                }
            }
            JOINT RightShoulder
            {
                OFFSET -3.474926 18.396038 -0.314103
                CHANNELS 3 Zrotation Xrotation Yrotation
                JOINT RightArm
                {
                    OFFSET -10.880760 0.000000 0.000000
                    CHANNELS 3 Zrotation Xrotation Yrotation
                    JOINT RightForeArm
                    {
                        OFFSET -27.185530 0.000000 0.000000
                        CHANNELS 3 Zrotation Xrotation Yrotation
                        JOINT RightHand
                        {
                            OFFSET -27.825975 0.000000 0.000000
                            CHANNELS 3 Zrotation Xrotation Yrotation
                            End Site
                            {
                                OFFSET -13.236923 0.000000 0.000000
                            }
                        }
                    }
                }
            }
        }
    }
    JOINT LeftUpLeg
    {
        OFFSET 8.824615 0.000000 0.000000
        CHANNELS 3 Zrotation Xrotation Yrotation
        JOINT LeftLeg
        {
            OFFSET -0.000000 -35.111282 0.000000
            CHANNELS 3 Zrotation Xrotation Yrotation
            JOINT LeftFoot
            {
                OFFSET -0.000000 -42.324711 0.000000
                CHANNELS 3 Zrotation Xrotation Yrotation
                JOINT LeftToeBase
                {
                    OFFSET -0.000000 -5.735999 13.236923
                    CHANNELS 3 Zrotation Xrotation Yrotation
                    End Site
                    {
                        OFFSET -0.000000 0.000000 3.529846
                    }
                }
            }
        }
    }
    JOINT RightUpLeg
    {
        OFFSET -8.824615 0.000000 0.000000
        CHANNELS 3 Zrotation Xrotation Yrotation
        JOINT RightLeg
        {
            OFFSET -0.000000 -35.111282 0.000000
            CHANNELS 3 Zrotation Xrotation Yrotation
            JOINT RightFoot
            {
                OFFSET -0.000000 -42.324711 0.000000
                CHANNELS 3 Zrotation Xrotation Yrotation
                JOINT RightToeBase
                {
                    OFFSET -0.000000 -5.735999 13.236923
                    CHANNELS 3 Zrotation Xrotation Yrotation
                    End Site
                    {
                        OFFSET -0.000000 0.000000 3.529846
                    }
                }
            }
        }
    }
}
MOTION
Frames:    11
Frame Time:    0.008333
-19.659414    80.677292    105.805061    -1.982812    -10.242839    -175.812408    -2.361591    -6.630785    -0.136813    -0.410135    1.273984    0.002990    3.668817    6.614991    -3.040219    7.082712    -9.350092    -1.917479    -2.389615    16.439760    -0.608374    -44.704567    39.568214    -42.464222    21.922037    -9.623971    -43.470295    36.852081    -3.614452    -8.423233    7.829407    14.176773    -9.174890    46.447689    39.171875    32.956360    -22.174839    -16.947550    51.114342    -33.025146    -7.793014    4.674931    1.186544    -24.207132    -1.666901    -2.253145    31.597439    9.127007    -5.915119    -14.019935    -12.000001    1.465015    -0.584320    -1.625617    -5.253222    -22.561138    -4.139410    11.821846    36.069641    -6.317292    1.164804    -9.951542    -14.199182    -0.693813    -6.418047    0.757451
-19.741989    80.702141    105.798813    -2.019450    -10.304427    -175.908676    -2.339169    -6.651156    -0.135930    -0.432055    1.242517    0.014409    3.663778    6.649645    -3.030815    6.983127    -9.443336    -1.922749    -2.355244    16.429384    -0.530513    -44.981606    39.418011    -42.127773    21.776421    -9.331254    -43.321281    36.895409    -3.468953    -8.582629    7.803622    14.196353    -9.159870    46.030025    39.437515    33.221985    -21.999701    -16.586487    51.195831    -33.161018    -7.530226    4.801769    1.145864    -24.181616    -1.730104    -2.383356    31.469309    9.395432    -5.947115    -13.963943    -12.052026    1.493521    -0.625756    -1.657372    -5.394582    -22.602356    -4.217196    11.884576    36.025917    -6.372163    1.145365    -9.919719    -14.166167    -0.747350    -6.318516    0.815771
-19.819429    80.725372    105.794945    -2.059172    -10.370156    -176.022964    -2.321900    -6.674239    -0.121412    -0.450100    1.204558    0.017365    3.651824    6.699353    -3.026564    6.885617    -9.519855    -1.932931    -2.322273    16.406200    -0.433281    -45.284084    39.155830    -41.711723    21.578583    -8.938781    -42.987076    36.910805    -3.296581    -8.783600    7.789702    14.231345    -9.161831    45.685429    39.580429    33.410225    -21.811544    -16.191101    51.144127    -33.303455    -7.275234    4.941289    1.122810    -24.161390    -1.787556    -2.539414    31.341347    9.704082    -5.986698    -13.901429    -12.115959    1.523689    -0.686616    -1.691036    -5.586761    -22.722624    -4.332981    12.011236    36.102367    -6.475764    1.202272    -9.832114    -14.067709    -0.807691    -6.245386    0.881537
-19.888649    80.745270    105.793121    -2.100749    -10.433685    -176.152191    -2.311915    -6.695378    -0.111017    -0.460478    1.163694    0.029607    3.631511    6.756476    -3.026651    6.793088    -9.576099    -1.946855    -2.291221    16.371647    -0.320346    -45.596550    38.790123    -41.237095    21.334051    -8.471719    -42.469730    36.890083    -3.110535    -9.005816    7.785664    14.278360    -9.180788    45.432865    39.590656    33.509254    -21.614639    -15.776816    50.950508    -33.441494    -7.042061    5.091435    1.121221    -24.144079    -1.822863    -2.711453    31.220959    10.027970    -6.035106    -13.837432    -12.191424    1.554695    -0.763218    -1.725688    -5.823277    -22.913439    -4.476753    12.201024    36.296703    -6.623526    1.334356    -9.696214    -13.911454    -0.870153    -6.200736    0.949643
-19.952253    80.761742    105.792793    -2.146426    -10.493178    -176.301788    -2.311210    -6.710804    -0.097209    -0.458669    1.120721    0.044350    3.599168    6.815907    -3.029630    6.702058    -9.613809    -1.963439    -2.260330    16.325754    -0.188627    -45.921158    38.313408    -40.695564    21.034485    -7.933361    -41.751438    36.823826    -2.914601    -9.241312    7.785791    14.335742    -9.216704    45.264122    39.467110    33.521584    -21.398457    -15.331615    50.606628    -33.575733    -6.826744    5.259625    1.141908    -24.125202    -1.824191    -2.899833    31.105991    10.364445    -6.095678    -13.773537    -12.283527    1.586394    -0.855196    -1.761169    -6.112746    -23.174616    -4.648808    12.461471    36.611691    -6.819602    1.545083    -9.513578    -13.696690    -0.934105    -6.180036    1.019404
-20.010353    80.773735    105.793671    -2.197258    -10.545092    -176.473618    -2.321587    -6.716505    -0.079420    -0.441266    1.078011    0.061089    3.553487    6.872716    -3.033671    6.610347    -9.635847    -1.981193    -2.227618    16.268215    -0.039250    -46.249851    37.724686    -40.089115    20.676693    -7.340820    -40.825729    36.700096    -2.720165    -9.476230    7.784657    14.399293    -9.268435    45.181950    39.200054    33.440586    -21.157040    -14.857745    50.107021    -33.704739    -6.634948    5.448365    1.185946    -24.101561    -1.779306    -3.100410    30.998802    10.701618    -6.169720    -13.714647    -12.395097    1.616088    -0.959595    -1.794475    -6.459077    -23.503548    -4.849467    12.795570    37.049564    -7.065609    1.837122    -9.288197    -13.424219    -0.997477    -6.179919    1.088561
-20.061932    80.780014    105.795242    -2.252074    -10.584755    -176.664108    -2.342454    -6.709264    -0.060699    -0.406811    1.040316    0.081241    3.493706    6.920146    -3.036940    6.519433    -9.645602    -1.997802    -2.191396    16.199018    0.123331    -46.566666    37.037319    -39.432873    20.263645    -6.728098    -39.716557    36.511738    -2.543017    -9.693247    7.775523    14.462416    -9.333534    45.186966    38.787624    33.263943    -20.889427    -14.371252    49.465202    -33.827496    -6.477288    5.653250    1.253039    -24.070465    -1.680883    -3.305026    30.904177    11.021940    -6.255745    -13.667160    -12.526028    1.639681    -1.071726    -1.821046    -6.856852    -23.887581    -5.077273    13.195464    37.598663    -7.356068    2.203390    -9.029839    -13.102339    -1.056466    -6.195656    1.152964
-20.109919    80.780006    105.796936    -2.312206    -10.610157    -176.882065    -2.371426    -6.685680    -0.038635    -0.354532    1.010152    0.102865    3.417284    6.956741    -3.037622    6.422381    -9.649695    -2.012371    -2.145641    16.111971    0.305764    -46.880608    36.211578    -38.691017    19.765703    -6.083701    -38.371201    36.242062    -2.386576    -9.893633    7.751455    14.521659    -9.412828    45.277462    38.197247    32.975288    -20.574100    -13.855278    48.652729    -33.954670    -6.353978    5.883451    1.348141    -24.026598    -1.517639    -3.520976    30.819725    11.333704    -6.359290    -13.631847    -12.685214    1.655164    -1.195537    -1.838659    -7.328205    -24.339727    -5.350948    13.678926    38.284340    -7.704906    2.660761    -8.729039    -12.717101    -1.111930    -6.221436    1.213542
-20.151497    80.772758    105.797783    -2.371684    -10.615249    -177.113129    -2.401173    -6.644263    -0.016654    -0.291072    0.993954    0.125343    3.331025    6.978625    -3.033674    6.322307    -9.656170    -2.022318    -2.085800    16.008072    0.495304    -47.169506    35.285419    -37.899734    19.199970    -5.466340    -36.874172    35.905891    -2.273954    -10.056211    7.707312    14.566490    -9.499250    45.447453    37.446358    32.580330    -20.222233    -13.352488    47.721954    -34.083397    -6.283480    6.122041    1.468355    -23.968544    -1.293690    -3.733283    30.753511    11.611355    -6.475625    -13.612475    -12.863970    1.660478    -1.323137    -1.844996    -7.847486    -24.826605    -5.665285    14.212687    39.065254    -8.088840    3.180836    -8.406854    -12.293136    -1.157583    -6.250710    1.263422
-20.188295    80.757973    105.796944    -2.429675    -10.598057    -177.359756    -2.428842    -6.583397    0.005992    -0.214299    0.995008    0.148047    3.232037    6.985513    -3.024117    6.215056    -9.672574    -2.026932    -2.007184    15.879612    0.692532    -47.439175    34.229637    -37.031807    18.544796    -4.880409    -35.210560    35.506718    -2.213809    -10.181823    7.632088    14.590911    -9.593621    45.693111    36.510033    32.066639    -19.822454    -12.864286    46.667648    -34.218910    -6.270779    6.369654    1.616655    -23.892696    -1.005372    -3.946053    30.705271    11.860034    -6.608511    -13.607066    -13.065111    1.657198    -1.456853    -1.841806    -8.425816    -25.350016    -6.038856    14.795911    39.950520    -8.507781    3.767663    -8.060488    -11.827171    -1.191362    -6.280037    1.300348
-20.220381    80.735771    105.793800    -2.484294    -10.557966    -177.616943    -2.449095    -6.503160    0.029283    -0.130780    1.014281    0.169875    3.126719    6.980105    -3.007659    6.097830    -9.707726    -2.025466    -1.900355    15.723351    0.891709    -47.689484    33.039986    -36.083973    17.800333    -4.350819    -33.416122    35.063828    -2.218160    -10.268940    7.520401    14.587458    -9.692859    46.004890    35.382412    31.430519    -19.377569    -12.411184    45.516609    -34.358124    -6.323404    6.617031    1.791031    -23.799496    -0.656803    -4.156393    30.677551    12.076636    -6.758094    -13.613866    -13.285864    1.647165    -1.594507    -1.831122    -9.058546    -25.897594    -6.481439    15.406430    40.925064    -8.944805    4.407601    -7.698628    -11.332207    -1.208353    -6.308338    1.318950
